<?xml version="1.0" encoding="utf-8"?>
<!-- Generator: Adobe Illustrator 16.0.4, SVG Export Plug-In . SVG Version: 6.00 Build 0)  -->
<!DOCTYPE svg PUBLIC "-//W3C//DTD SVG 1.1//EN" "http://www.w3.org/Graphics/SVG/1.1/DTD/svg11.dtd">
<svg version="1.1" id="Layer_1" xmlns="http://www.w3.org/2000/svg" xmlns:xlink="http://www.w3.org/1999/xlink" x="0px" y="0px"
	 width="112px" height="98px" viewBox="0 0 112 98" enable-background="new 0 0 112 98" xml:space="preserve">
<path d="M42,14L33.633,0H0v23.333V98h112V23.333V14H42z M102.666,88.668H9.333V23.333h27.37H42h60.666V88.668L102.666,88.668z
	 M37.771,36.27l-7,2.543V34.71h7V36.27z M46.667,56c0-5.156,4.177-9.333,9.333-9.333s9.334,4.175,9.334,9.333
	c0,5.156-4.178,9.334-9.334,9.334C50.843,65.334,46.667,61.156,46.667,56z M28,42v32.667h56V37.333H65.334v-4.667H46.667v4.667H42
	L28,42z M56,42c7.732,0,14,6.269,14,14c0,7.734-6.268,14-14,14s-14-6.266-14-14C42,48.267,48.268,42,56,42z"/>
</svg>
