<?xml version="1.0" encoding="utf-8"?>
<!-- Generator: Adobe Illustrator 16.0.0, SVG Export Plug-In . SVG Version: 6.00 Build 0)  -->
<!DOCTYPE svg PUBLIC "-//W3C//DTD SVG 1.1//EN" "http://www.w3.org/Graphics/SVG/1.1/DTD/svg11.dtd">
<svg version="1.1" id="Artwork" xmlns="http://www.w3.org/2000/svg" xmlns:xlink="http://www.w3.org/1999/xlink" x="0px" y="0px"
	 width="512px" height="512px" viewBox="0 0 512 512" enable-background="new 0 0 512 512" xml:space="preserve">
<g>
	<path d="M172.141,155.066c1.172,1.172,2.707,1.758,4.243,1.758c1.535,0,3.07-0.586,4.242-1.757
		c2.344-2.343,2.344-6.143,0.001-8.485l-12.48-12.477c-4.541-4.542-3.962-12.512,1.292-17.765l14.631-14.632
		c4.796-4.795,7.438-11.191,7.438-18.011s-2.641-13.217-7.437-18.013l-8.607-8.609c-2.343-2.343-6.141-2.344-8.485-0.001
		c-2.344,2.343-2.344,6.142-0.001,8.485l8.607,8.609c2.53,2.53,3.923,5.914,3.923,9.528c0,3.613-1.393,6.996-3.923,9.525
		l-14.631,14.632c-9.933,9.931-10.512,25.513-1.291,34.736L172.141,155.066z"/>
	<path d="M240.809,126.552c1.172,1.171,2.706,1.756,4.241,1.756c1.536,0,3.073-0.587,4.244-1.759
		c2.343-2.345,2.341-6.144-0.003-8.485c-0.001-0.001-5.617-5.612-12.479-12.478c-2.107-2.105-3.179-5.06-3.019-8.318
		c0.171-3.481,1.701-6.834,4.311-9.441l14.629-14.633c4.796-4.794,7.438-11.19,7.438-18.011c0-6.819-2.641-13.217-7.438-18.014
		l-8.608-8.607c-2.344-2.342-6.142-2.343-8.485,0.001c-2.343,2.343-2.343,6.142,0.001,8.485l8.607,8.606
		c2.53,2.53,3.923,5.914,3.923,9.528c0,3.613-1.393,6.996-3.923,9.525L229.619,79.34c-4.72,4.717-7.494,10.874-7.812,17.338
		c-0.329,6.688,1.987,12.866,6.52,17.395C235.189,120.938,240.809,126.552,240.809,126.552z"/>
	<path d="M309.459,155.066c1.171,1.172,2.707,1.758,4.242,1.758s3.071-0.586,4.242-1.758c2.344-2.343,2.344-6.142,0-8.484
		l-12.478-12.478c-4.541-4.541-3.963-12.51,1.29-17.764l14.63-14.631c4.799-4.795,7.441-11.192,7.441-18.012
		c0-6.82-2.643-13.217-7.439-18.013l-8.606-8.609c-2.343-2.343-6.141-2.344-8.485-0.001c-2.344,2.343-2.344,6.142-0.001,8.485
		l8.607,8.61c2.53,2.53,3.925,5.913,3.925,9.527c0,3.613-1.394,6.995-3.926,9.525l-14.632,14.633
		c-9.931,9.934-10.509,25.515-1.288,34.734L309.459,155.066z"/>
	<path d="M480.557,261.65l-34.031-34.031c-0.09-0.09-0.194-0.152-0.287-0.235c8.154-4.216,13.768-12.727,13.768-22.473
		c0-13.951-11.351-25.301-25.303-25.301H44.289c-13.954,0-25.307,11.35-25.307,25.301c0,11.746,8.15,21.724,19.096,24.515
		c0.583,60.846,11.346,115.862,30.457,155.388c13.31,27.526,30.218,47.133,49.943,58.269H63.296
		c-17.291,0-30.836,10.003-30.836,22.773c0,12.772,13.545,22.778,30.836,22.778h352.408c17.287,0,30.829-10.006,30.829-22.778
		c0-12.771-13.542-22.773-30.829-22.773h-55.201c19.728-11.136,36.638-30.742,49.948-58.269c2.431-5.027,4.725-10.309,6.882-15.817
		l47.146-31.359c16.312-10.851,26.585-26.293,28.186-42.369C493.921,282.652,489.621,270.713,480.557,261.65z M434.533,465.855
		c0,5.098-7.732,10.778-18.829,10.778H63.296c-11.101,0-18.836-5.681-18.836-10.778c0-5.096,7.735-10.773,18.836-10.773h352.408
		C426.801,455.082,434.533,460.76,434.533,465.855z M319.238,441.896H159.737c-41.551,0-66.655-33.883-80.399-62.307
		c-18.885-39.058-29.285-94.242-29.285-155.389c0,0,0.447-6-5.928-6c-7.248,0-13.143-6.05-13.143-13.29
		c0-7.334,5.97-13.301,13.307-13.301h390.414c7.335,0,13.303,5.967,13.303,13.301c0,7.246-5.896,13.29-13.142,13.29
		c-6.864,0-5.932,6-5.932,6C433,296,406.041,363.798,405.979,365.077c-1.991,5.049-4.101,9.897-6.332,14.513
		C385.903,408.014,360.797,441.896,319.238,441.896z M480.724,294.079c-1.242,12.482-9.585,24.716-22.891,33.565l-33.97,22.596
		c9.938-32.146,15.754-70.316,16.866-111.446l31.343,31.342C478.638,276.701,481.63,284.98,480.724,294.079z"/>
</g>
</svg>
